<?xml version="1.0" encoding="utf-8"?>
<!-- Generator: Adobe Illustrator 20.1.0, SVG Export Plug-In . SVG Version: 6.00 Build 0)  -->
<svg version="1.1" id="レイヤー_1" xmlns="http://www.w3.org/2000/svg" xmlns:xlink="http://www.w3.org/1999/xlink" x="0px"
	 y="0px" viewBox="0 0 147.1 92.9" style="enable-background:new 0 0 147.1 92.9;" xml:space="preserve" width="162">
<style type="text/css">
	.st0{fill:#E50012;}
	.st1{fill:#009844;}
	.st2{fill:#FFFFFF;}
	.st3{fill:#231815;}
</style>
<g>
	<g>
		<path class="st0" d="M94.4,22.9c0,0-0.4-0.1-0.5-0.1c-0.2-0.1-0.1,0.3-0.4,0.3c-0.6,0-1.7-0.1-2.3,0c-0.4,0.1-0.6,0.4-1,0.3
			c-0.3-0.1-0.2-1.1-0.4-1.5c-0.1-0.4-0.6-0.5-1-0.8c-0.2-0.1-0.1-0.3-0.2-0.4c-0.1-0.2-0.5-0.3-0.7-0.3c-0.1,0-0.6,0.2-0.8,0.3
			c-0.7,0.9-0.1,2-0.9,3c-0.2,0.2-0.2,0.4-0.5,0.5c-0.3,0.1-0.7,0-1.1,0.1c-0.1,0-0.3,0.2-0.4,0.2c-0.9,0.2-1.9,0.1-2.8,0.3
			c-0.3,0-0.2-0.4-0.3-0.3c-0.1,0.1,0-0.3,0-0.4c-0.1-0.4-0.1-0.8-0.3-1.3c-0.3-0.7-0.8-1.4-1.5-1.7c-0.4-0.1-1,0.1-1.2,0.5
			c-1.2,1.7-1.6,3.4-2.6,5c-0.1,0.1-0.3,0.1-0.4,0.2c-0.1,0.2,0,0.4-0.1,0.6c-0.3,0.7-0.7,1.4-1.1,2.1c-0.1,0.2-0.1,0.7-0.3,0.9
			c-0.1,0.1-0.2,0-0.2,0c-0.1,0.1,0.2-1-0.2-1.1c-0.1,0-0.6-0.4-0.7-0.4c-0.1-0.2,0-0.3-0.1-0.5c-0.1-0.1-0.3,0-0.4-0.1
			c-0.1-0.1-0.1-0.4-0.2-0.5c-0.6-0.4-1.3-0.5-2-0.2c-0.4,0.2-0.7,0.6-1,1.1c-0.3,0.5-0.6,1.2-0.4,1.7c0.4,0.9,1.4,1.7,2.2,2.3
			c0.5,0.4,0.8,0.1,1.3,0.4c-0.4,0.6-0.1,0.6-0.6,1c-0.5,0.3-1.7,0.3-1.8,0.8c-0.2,0.5,0,1-0.1,1.2c-0.3,0.3-0.5,0.5-0.5,0.8
			c0,0.2,0.1,0.5-0.1,0.8c-0.5,0.6-1.9,2-1.9,2.5c0,0.3,0.3,0.3,0.5,0.3c0.1,0.1,0.2,0.2,0.2,0.4c0,0.3,0.4,0.2,0.6,0.3
			c0.2,0,0.3,0.2,0.6,0.1c0.2,0,0.3-0.3,0.5-0.3c0.3,0,0.4,0.5,0.6,0.3c0.4-0.5,1-1,1.3-1.6c0-0.1,0-0.1-0.1-0.3
			c0-0.1,0-0.3,0.1-0.3c0.1,0,0.3,0,0.4,0c0.3-0.4,0.5-0.6,0.8-0.7c0.5-0.3,1.1-0.3,1.7-0.3c0.4,0,0.7,0.2,1,0.3
			c0.3,0,0.6-0.1,0.9,0c0.1,0,0.2,0.1,0.3,0.3c0.1,0.1,0.5,0,0.8,0c0.1,0,0.3-0.1,0.3,0.1c0.1,0,0.2,0.2,0.4,0.2
			c0.3,0.1,0.8,0,0.6,0.3c0,0.1,0,0.1-0.1,0.1c0,0-0.1-0.1-0.5,0.1c-0.4,0.1-0.5,0.4-0.9,0.6c-0.1,0.1-0.6,0.1-0.7,0.2
			c-0.7,0.6,0.4,1.8,0.9,2.5c0.3,0.4,0.2,0.2,0.7,0.5c0.1,0,0.1,0.5,0.4,0.5c0.1,0,0.1,0.1,0.3,0c0.2,0,0.1,0.9,0.2,0.8
			c0.1-0.1,0.6-0.2,0.7-0.2c0,0,0.9-0.8,0.8-0.9c-0.1-0.1-0.4-0.1-0.5-0.3c-0.1-0.1,0.1-0.2,0.1-0.3c0.5-0.1,0.3,0.3,0.7,0
			c0.1,0,0.3-0.2,0.3-0.2c0,0.1,0.5-0.5,0.5-0.3c0.3-0.1,0.7-0.6,1.3-1.3c0.1,0.2,0,0.5,0.1,0.7c0.4,0.6,0.9,1.3,1.4,1.7
			c0.3,0.3,0.4,0.6,0.6,0.8c0.1,0.2,0.6-0.1,1-0.1c0.3,0,0.7,0.2,0.9,0.1c0.1-0.1,0.4-0.4,0.5-0.3c0.1,0,0.1-0.2,0.2-0.2
			c0.3-0.1,0.4,0.4,0.7,0.3c0.4-0.1,0.8-0.6,1.1-0.6c0.3,0,0.9,0.4,1.2,0.2c0.6-0.4,0.6-0.4,1.3-0.5c0.3,0,0.7,0.1,1,0
			c0-0.1,0-0.2,0-0.4c0-0.2-0.3,0-0.5-0.1c-0.1-0.1-0.1-0.2-0.1-0.3c0.3-0.2,0.8,0.1,1-0.1c0.2-0.1,0.2-0.5,0.3-0.9
			c0-0.2-0.4-0.6-0.6-0.9c-0.2-0.3-0.3-0.3-0.2-0.6c0.1-0.4,1.2-0.5,1.4-0.9c0-0.1-0.1-0.3-0.2-0.3c-1,0-1.4-0.1-2.2,0.1
			c-0.5,0.2-0.9,0.6-1.3,0.9c-0.1,0.1-0.1,0.2-0.3,0.3c-0.3,0.2-0.7,0.2-1,0c-0.2-0.1,0,0-0.2-0.3c-0.3-0.5-1.5-0.1-2.2-0.2
			c-0.1,0,0-0.3-0.1-0.4c-0.4-0.1,0.4-0.5,0.5-0.6c0.4-0.7,0.6-1.1,1.1-1.5c0.3-0.2,0.6,0,0.9-0.1c0.1,0,0.3-0.2,0.4-0.2
			c0.3,0,0.6,0.1,0.9,0c0.2-0.1,0.3-0.7,0.7-0.8c0.1,0,0.4,0,0.4-0.1c0.1-0.2-0.3-0.5-0.5-0.9c-0.2-0.4-0.3-1-0.6-1.3
			c-0.4-0.5-0.6-0.5-0.8-1c0-0.1,0.5-0.1,0.5-0.2c0-0.3-0.2-0.2,0.3-0.5c0,0,0.3,0.3,0.4,0.2c0.3,0,0.6-0.3,0.5-0.2
			c0.1,0,0,0.4,0,0.5c0,0.1,0.2-0.1,0.3,0c0.2,0.1,0.2-0.2,0.4-0.2c0.2,0,0-0.6,0.2-0.8c0.1-0.1,0.3,0,0.4-0.1c0-0.1-0.1-0.3,0-0.3
			c-0.4-0.5,0-1.2-0.3-1.5c-0.1-0.1,0-0.6,0-0.6c0,0-0.5-0.3-0.5-0.3c0-0.6-0.1-1.3-0.2-1.9c0-0.1-0.2-0.3-0.2-0.4
			c0.1-0.3,0.8,0,0.9-0.1c0.1-0.2,0.6-0.1,0.7-0.3c0.1-0.1-0.1-0.7,0-0.8c0.1-0.2,0.2-0.2,0.5-0.4c0.1,0,0.5-0.1,0.5-0.1
			c0.2-0.5-0.2-1.4-0.2-1.9c0-0.1,0.4,0,0.3-0.1C94.4,23,94.5,23,94.4,22.9z M79.8,27c0.4-0.5,0.7-1.1,1.2-1.5c0.1,0,0.3,0,0.3,0.1
			c0,0.5-0.1,1.3,0,1.7c0.2,0.4,1.2,0.1,1.2,0.6c0,0.3,0,0.8-0.3,1c-0.2-0.5-0.6-1.1-1.2-1.4c-0.2-0.1-0.8,0.1-0.9,0
			c-0.5-0.3-0.2,0.7-0.6,0.3C79.1,27.7,79.5,27.3,79.8,27z M80.6,34.4c-0.7-0.1-0.7-0.3-1.1,0c-0.1,0.1-0.1,0.3-0.1,0.3
			c-0.1,0.3-0.1,0.6-0.2,1.1c0,0,0,0.4,0.1,0.4c0.3,0,0.1,0.3,0.5,0.5c0.1,0.1,0.1,0.4,0.2,0.4c0.2,0.1,0.6,0,0.7,0.1
			c0,0.1-0.3,0.2-0.4,0.5C80,38,80,38.3,79.9,38.3c-0.1,0-0.1-0.4-0.2-0.8c-0.1-0.3-0.3-0.6-0.3-0.8c0-0.1-0.2-0.3-0.2-0.4
			c-0.4-0.5-0.8-0.7-1.2-1.1c-0.3-0.1-1.1-0.1-1.2,0c-0.1,0-0.1,0.3-0.3,0.3c-0.5,0-0.7,0.3-1.2,0.3c-1.1-0.1,0.8-1.7,0.7-1.9
			c-0.1-0.2-0.3,0-0.3-0.1c0-0.3,0.2-0.1,0.2-0.3c0-0.2,0.5-0.2,0.3-0.1c0.1,0-0.1,0.2,0,0.2c0.2-0.1,0.2-0.3,0.5-0.6
			c0-0.1,0.4,0,0.5-0.1c0.1-0.2,0.2-0.6,0.2-0.6c0.1-0.1,0-0.1,0.1-0.1c0.3,0,0.7,0,0.9,0c0.3,0,0.3-0.3,0.6-0.2
			c0.2,0,0.2,0.2,0.3,0.3c0.1,0,0.4,0.1,0.5,0.2c0.2,0.1,0.1,0.3,0.2,0.4c0.2,0.2,0.6,0.5,0.8,0.7c0.3,0.2,0.6,0.5,0.9,0.7
			c0.3,0.2,0.7,0.2,0.7,0.3C82.6,34.4,81.4,34.5,80.6,34.4z M84.5,29.2c0,0.1-0.2,0-0.3,0c-0.1-0.1-0.1-0.3-0.1-0.5
			c-0.1-0.2-0.3-0.3-0.5-0.5c0.3-0.1,0.5-0.2,0.8-0.2c0.1,0,0.4,0.1,0.5,0.2C85,28.7,84.5,28.8,84.5,29.2z M88.1,28.8
			c-0.1,0.1-0.3,0-0.3-0.1c0-0.3,0-0.6,0.1-0.7c-0.1,0.1,0.2-0.4,0.5-0.3C89,28,88.3,28.6,88.1,28.8z"/>
		<path class="st0" d="M92.9,31.7C92.8,31.7,92.8,31.7,92.9,31.7C92.8,31.8,92.9,31.8,92.9,31.7z"/>
		<path class="st1" d="M65.4,47.1h75.9c3.2,0,5.8,2.6,5.8,5.8v34.2c0,3.2-2.6,5.8-5.8,5.8H5.8c-3.2,0-5.8-2.6-5.8-5.8V52.9
			c0-3.2,2.6-5.8,5.8-5.8h32.4l0.2,0.7l0.3,0.2l0.4,0.2l1.1,0.4l1.1,0.4l2.5,0.8l0.7,0l1-0.6l0.2-0.4l0-0.4l0.4-0.5l0.2-0.9h1.4
			l0,0.7l-0.3,0.4L47,48.5l-0.3,0.3l-0.2,0.3l0,0.4L45.9,50l-0.1,0.3l-0.4,0.9l-0.4,0.2l-0.3,0.4l0.1,0.7l0.4,0.9l1.7,1.3l0.2,0.2
			l1.2,0.7l0.4-0.2l0.2,0.2l0.5-0.2l0.9,0.3h0.2l0,0.5l0.7,0.2l0.3,0.1l1.1-1l1.2-2.3l0.9-1.6l0-0.6l0.7-0.7l0.7-1.7l0.4-0.8
			l0.4-0.4l0.2-0.1l1.3,0l0.5,0.3l0.9,0.4l1.1-0.2l0.9,0.2l1.2-0.2l0.6,0l0.6,0.2l0.1-0.4h0.2L65,48L65.4,47.1z"/>
		<path class="st0" d="M102,42.8c0.8-0.4,1.8-0.8,2.6-1.1c0.3-0.1,0.4-0.3,0.6-0.3c0.3,0,0.7,0.4,1.1,0.5c0.3,0,0.5,0,0.6,0.1
			c0.1,0.1-0.2,0.6,0,0.7c0.1,0,0.6,0,0.6,0.2c-0.2,0.7,0.4,0.8,0.8,1.1c0.1,0.1-0.1,0.3,0,0.5c0,0.1-0.4,0.2-0.6,0.2
			c-0.2,0-0.2,0.2-0.3,0.3c-0.2,0.1-0.5,0-0.7,0c-0.2,0.1-0.3,0.4-0.4,0.5c-0.1,0.1-0.4,0-0.6,0c-0.2,0-0.1,0.2-0.3,0.2
			c-0.3,0-0.5,0-0.7,0c-0.1,0.1-0.1,0.1-0.2,0.2c-0.6,0.3-1.6,0.6-2.1,0.4c-0.2-0.1,0.1-0.2-0.1-0.3c-0.1,0-0.3-0.1-0.4,0
			c-0.2,0.1-0.5,0.1-0.7,0c-0.2-0.1-0.5-0.4-0.7-0.5c-0.1-0.1-0.5-0.1-0.6-0.1c-0.5-0.2-0.6-0.3-1-0.6c-0.4-0.1-0.5-0.5-0.6-0.7
			c-0.2-0.3-0.1-1.1,0.3-1.5c0.2-0.2,0.6-0.2,0.8-0.1l0.1,0.2c0.4,0.4,0.4-0.2,0.8,0c0.4,0.3,0.6,0.3,1,0.1
			C101.4,42.6,101.7,42.9,102,42.8z"/>
		<path class="st2" d="M19.7,61.3c-2.2-1-4.6-2.4-7.3-4.1c0,0,2.4,3.6,3.7,5.5c1.3,2,3.8,5.7,3.8,5.7c6.1,1.7,12.8,2.5,19.1,1.7
			c1.3,2.8,1.7,5.5,2,8.5c0,0.3,0,1.2,0,1.2c3.4,0,7.7,0,11,0c0,0-0.7-3-1.1-4.4c-0.9-2.6-2.4-4.9-3.8-7.3
			c6.1-1.5,11.3-4.8,16.7-7.5c4.1-1.9,7.8-3.4,12.1-4.3c6.5-1.6,12.5-2.6,19.1-1.6c9.9,1.3,18.2,7.7,23.2,15.9l16.6-0.1
			c-1.5-0.9-3.9-2.7-5.5-3.7c-6.5-4.8-10.5-9.4-17.8-12.5c-4.9-2.1-9.8-3.3-15.1-3.6c-15-0.8-27.3,6.8-40.9,11.9
			C51.8,64,47.7,65,44,65.1c-2.3-2-4.5-3.8-7.3-5.4l-6.6,0c2.2,1.6,4.7,3.2,6,5.8C30.5,65,24.9,63.7,19.7,61.3z"/>
		<path class="st2" d="M39.6,80.6c-2.4-1.2-5.2-3.2-6.6-5.5c-0.5-0.9,0-1.9,0.8-2.7h-3.6c-0.9,0.4-2.7,2.3-2.9,4
			c-0.4,2.8,1.2,5.3,3.3,6.9l16.5,0C44.6,82.5,42,81.8,39.6,80.6z"/>
		<path class="st2" d="M56.7,71.7c-0.3,0.1-2.7,0.7-4.3,1c0.4,0.9,1.6,2.7,1.6,2.7c1.4-0.1,2.8-0.8,4.1-1l0.6,1.7
			c-1,1.1-2.6,2.4-3.5,3.5c0,0,0.9,1.6,1.4,2.4c0.8-0.8,1.8-1.9,2.8-2.6c0.5,0.7,0.1,3.4,0.3,3.8c2.1,0.1,4.3,0,6.4,0
			c0.1-2.2-1-4.6-1.6-6.6c1.3-0.4,3.5-0.8,4.4,0.5c0.9,1.2-0.5,3.5-1.4,4.7l3,0c1.4-0.9,2.5-2.5,3.4-3.8c1.2-1.9,1.3-4.3-0.9-5.8
			c-1.6-1.1-5.8-0.9-8.5,0.6c-0.1-0.4,0.6-0.9,0.5-1.4c-0.1-0.5-0.5-0.6-0.8-0.7c-1.6-0.3-2.7-0.1-3.8,0.2c-0.1,0-0.1-0.6-0.2-0.6
			c-1.3,0-4.2,0-4.2,0L56.7,71.7z"/>
		<path class="st2" d="M79.1,70.6c0,0-2.3,0-3.2,0c0.3,0.8,1.7,2.6,1.5,3.6c0,0.3-2.2,2.1-2.2,2.1l1.5,2.4c0.7-0.5,1.1-0.9,1.7-1.3
			c0.1,0,0.1-0.1,0.1,0c0.5,1.9,0.2,3.7,0,5.7c2,0,6,0,6,0c0.1-2.8-1-5.5-2.1-7.9c0.1,0.1,0.4-0.1,0.5,0c0.7,1.3,2,2.6,3.5,2.4
			c0.4-0.1,0.9-0.5,1.1-0.9c0.3-0.4,0.2-1,0.3-1.4c0-0.1,0.2,0,0.3-0.1c2.1,1.6-0.6,4.9-1.9,6.5c0.1,0,5.1,0,5.1,0
			c2.1-1.9,4.6-4.4,3.5-7.5c-1.1-3.2-5.8-3.5-8.4-3.3c-0.3,0-0.1-0.4-0.4-0.5c-1.5,0-4.3,0-4.3,0c-0.2,0,0.3,1.1,0,1.6
			c-0.3,0.1-1.1,0.6-1.3,0.3C80.1,71.8,79.5,71,79.1,70.6z"/>
		<path class="st2" d="M107.1,71.1c-2.1,0-3.8,0.4-5.8,1c0,0-0.9-1.5-1-1.5l-4,0c0.7,0.9,1.9,2.9,1.8,3.3c0,0-1.4,0.5-2,1.7l1.1,1.8
			c0.3-0.2,1.1-0.9,1.7-1.1c0.1,0,0.2,1.6,0.2,2.2c0,2.4-0.5,3.8-1,4.9c2,0,4.3,0,6.3,0c0,0,0.7-2.6-1.2-7.8
			c-0.1-0.3-0.2-0.9-0.2-0.9c1.2-0.1,1.8,0,2.6,0.2c1.1,0.4,2.2,1.5,2.5,2.5c0.3,1.6-0.4,3.2-1.5,4.3h5.1c1.6-1.3,2.5-3.2,2.8-5.3
			C114.7,73,110.1,71,107.1,71.1z"/>
		<path class="st2" d="M110.3,70.7l0.5,0.3c1.9,0.7,3.6,2.3,4.2,4.1c0.5,1.6,0.1,2.6-0.1,3.8c2.1,0,4,0,6.2-0.1
			c0.1-1.1-0.3-2-0.7-2.9c-1.3-2.2-3.6-4.2-5.6-5.2C114.8,70.6,110.6,70.7,110.3,70.7z"/>
		<g>
			<path class="st2" d="M44.6,43.7c-0.1,0-0.1,0.1-0.1,0.2c0,0.1,0.1,0.1,0.2,0.1c0.1-0.1,0.1-0.2,0.1-0.3
				C44.7,43.7,44.7,43.7,44.6,43.7z"/>
			<path class="st2" d="M66.2,35.5c-0.2,0.1-0.2,0.4,0,0.4C66.4,36,66.3,35.6,66.2,35.5z"/>
			<path class="st2" d="M80.7,41.8c-0.2,0.1-0.2,0.4,0,0.4C81,42.2,80.8,41.9,80.7,41.8z"/>
			<path class="st0" d="M71.5,17.6c-0.4-0.3-0.6-0.5-1.1-0.6c-0.2,0-0.5-0.1-0.6,0c-0.1,0.1,0,0.6-0.1,0.7c-0.1,0.1-0.3,0-0.5,0.1
				c-0.1,0.1-0.1,0.3-0.2,0.5c-0.2,0.2-0.4,0.4-0.5,0.6c-0.1,0.2-0.5,0.5-0.6,0.7c-0.1,0.2-0.1,0.3-0.2,0.4
				c-0.2,0.2-0.3,0.2-0.5,0.3c-0.4,0.3-0.6,0.9-0.9,1.3c-0.1,0.1-0.4,0.2-0.5,0.3c-0.2,0.2-0.2,0.5-0.4,0.7
				c-0.7,0.6-1.3,0.6-2.3,0.3c-0.3,0-0.1-0.5,0.1-0.9c0.4-0.7,0.6-1.3,0.8-1.9c0.1-0.2,0.3-0.3,0.4-0.5c0.1-0.2,0-0.6,0-0.9
				c0-0.2,0.4-0.2,0.5-0.4c0.1-0.3,0.2-0.5,0.3-0.7c0-0.1,0.2-0.7-0.1-0.9c0.1-0.1,0.6,0,0.6,0c0.5-0.9-0.9-1.6-1.6-2
				c-0.5-0.5,0.2-0.6-0.9-0.7c-0.5-0.1-0.9-0.4-1.2-0.7c-0.8-0.5-1.8-0.8-2.8-0.7c-0.1,0-0.1,0-0.4,0c-0.1,0-0.5-0.1-0.6,0.1
				c-0.1,0-0.3,0-0.4,0c-0.1,0-0.5-0.2-0.5,0.2c0,0.2-0.7,0-0.8,0.1c0.1,0-0.7,0.9-0.7,0.9c-0.1,0.3-0.5,0.9-0.5,1.4
				c0,0.3,0.2,0.4,0.1,0.6c-0.2,0.7-0.4,0.3-0.5,1.1c0,0.3-0.4,1.1-0.2,1.4c-0.3,0,0.3,0.3,0.2,0.4c0,0.3-0.2,0.8-0.2,1.1
				c0,0.2,0.2,0.2,0.2,0.3c-0.1,0.6-0.7,1.1-0.7,1.7c-0.1,0.7,0.1,1.3-0.1,2c-0.1,0.4-0.5,0.6-0.8,0.8c-0.7,0.5-1.4,0.9-2.1,0.7
				c-0.5-0.1-1.1-0.3-1.5-0.6c-0.2-0.1-0.2-0.4-0.4-0.5c-0.3-0.1-0.6-0.1-0.8-0.1c-0.3,0-0.5-0.1-0.8-0.2c-0.1-0.1-0.6-0.4-0.6-0.5
				c-0.4-0.2-0.9-0.1-1.4-0.1c-0.5,0-1,0.1-1.2,0.5c-0.2,0.3,0.1,0.7,0.2,1.1c0,0.1-0.2,0.1-0.2,0.2c0,0.5,0.1,0.9,0.3,1.3
				c0,0.1,0.4,0,0.4,0.1c0.2,0.3-0.1,0.5,0.2,0.8c0.1,0,0.3,0,0.3,0c0.1,0.1,0.1,0.4,0.2,0.5c0.2,0.2,0.7,0.2,0.9,0.3
				c0.2,0.1,0.2,0.4,0.3,0.5c0.1,0,0.4,0,0.6,0c0.1,0.1,0.1,0.4,0.2,0.5c0.1,0.1,0.3,0,0.5,0.1c0.1,0.1,0.2,0.4,0.3,0.5
				c0.1,0.1,0.3-0.1,0.5,0c0.1,0,0,0.3,0.1,0.3c0.5,0.2,0.5,0,1,0.1c0,0,0.1,0.1,0.2,0.2c0.2,0.1,0.7,0.3,0.7,0.3
				c0.3,0.1,0.6-0.1,1-0.3c0.1,0,0.3,0,0.5,0l0.3,0.1l0.8,0c0,0,0.5-0.3,0.8-0.3c0.1,0,0.3,0.1,0.6,0c0.4-0.1,0.8-0.3,0.8-0.3
				c0.3-0.2,0.7-0.4,0.9-0.4c0.4-0.1,0.9,0.1,1.4-0.1c0.3-0.1,0.7-0.4,1-0.5c0.3-0.1,0.6-0.1,0.9-0.3c0.1,0.1,0.7,0,0.8-0.1
				c0.2-0.2,0.6-0.3,1.1-0.6c0.2-0.1,0.4-0.4,0.7-0.5c0.1-0.1,0.5-0.2,0.8-0.2c0.2,0.1,0.4,0.6-0.1,0.8c-0.2,0.1-0.7,0.1-1.2,0.3
				c-0.6,0.2-1.4,0.4-2.1,0.7c-0.2,0.1-0.3,0.3-0.5,0.4c-0.1,0-0.2,0-0.3,0c-1.3,0.2-2.2,0.8-3.5,0.9l-1,0.2l-0.7,0.2
				c0,0-0.1,0.2-0.3,0.2c-0.2-0.1-0.7,0-0.7,0l-0.6,0.1c-0.2,0.1-0.3,0.2-0.5,0.3C51,30.9,50,31,49,31.2c-0.3,0.1-0.7,0.4-1,0.5
				c-0.5,0.1-0.9,0-1.4,0.1c-0.2,0.1-0.5,0.3-0.6,0.3c-0.1,0,0.5,0.7,0.5,1c-0.2,0.4-0.5,0.6-0.8,0.8c-0.3,0.1-0.5,0.1-0.6,0.3
				c-0.3,0.7-0.6,1.5-0.9,2.2c-0.4,0.7-0.8,1.1-1.2,1.7c-0.1,0.3-0.2,0.7-0.2,1.1c0,0.1-0.3,0.1-0.4,0.1c-0.4,0.7-1.1,1.5-1.4,2.3
				c-0.1,0.3,0,0.6-0.1,0.9c-0.5,1-1.1,1.5-1.5,2.5c-0.1,0.1-0.1,0.8-0.1,0.9c-0.2,0.4-0.4,0.4-0.5,0.8c0,0.1,0.7,0.9,0.8,0.9l0.2,0
				c0,0,0-0.1,0-0.1c0-0.1,0.2-0.5,0.2-0.6c0-0.4-0.2-0.8,0.2-1c0.1,0,0.2,0,0.2,0.1c0.1,0.5-0.2,1.1,0,1.6c0.1,0.3,0.4-0.2,0.5,0.1
				c0,0.1,0.1,0.3,0,0.3c0,0,0,0.1,0.1,0.1c0.1,0,0.5-0.1,0.5,0c0,0.1,0.2-0.2,0.3-0.1c0.1,0.1,0,0.1,0.1,0.3c0,0,0.1,0.1,0.3,0.1
				c0.1,0,0.2-0.2,0.2-0.2c0,0,0.2,0.4,0.2,0.4c0.5,0.2,1.1,0.3,1.3,0.3c0.3,0,0.2-0.1,0.1-0.2c0-0.1,0.1-0.3,0.1-0.3
				s0.2-0.1,0.2,0.2c0,0.3,0,0.5,0.3,0.4c0.3-0.1,0.7-0.5,0.7-0.7c0-0.2,0.2-0.7,0.2-0.7s0.2-0.1,0.2-0.3c0.1-0.2,0-0.5,0-0.5
				l0.1-0.2c0-0.1,0-0.2,0-0.3c0.4-1.1,1-2.2,1.5-3.1c0.1-0.3,0.4-0.4,0.5-0.7c0,0-0.3-0.1-0.1-0.3c1-1,1-1.3,1.1-2.4
				c0.3-0.7,0.4,0.7,0.8,0.7c0.4,0.1,0.7,0.2,1,0.4c0.1,0.1,0,0.2,0.1,0.2c-0.5,0.3,0.2,0.8,0.1,1.2c0,0.1-0.3,0-0.4,0.1
				c0,0.1,0.2,0.5,0.2,0.6c-0.3,0.7-0.6,0.8-1,1.5c-0.3,0.4,0.1,0.8-0.1,1c-0.3,0.7-0.5,0.7-0.8,1.4c0,0-0.5,0.3-0.5,0.3l-0.1,0.6
				l-0.2,0.5l-0.3,0.2l0,0.1l-0.2,0L47.1,49l0.1,0.3l-0.3,0.2l-0.3,0.2l0,0.4l-0.2,0.4L46,50.5l-0.1,0.6l-0.1,0.2l-0.5,0.3l-0.2,0.6
				l0.6,0.2l-0.2,0.4l0.6,0.6l0.6,0.5l0.2,0.1l0.2,0v0.2l0.4,0l0.6,0.4l0.1,0.3l0.5-0.1l0.2-0.2l0.3,0.3l0.3,0h0.2L50,55l0.2,0.3
				l0.4-0.2l0.1-0.4l0.2-0.3l0.1-0.3l0.1-0.3l0.4-0.3h0.2l-0.3,0.7l0.2,0.4L51,54.8l0,0.9l0.2,0.3c0,0,0.5-0.3,0.6-0.5
				c0.1-0.1,0.4-0.4,0.4-0.4l0.5-1l0-0.4l0.3-0.1l0.8-1.5l0.2-0.5l0.2-0.4l0.1-0.6c0,0,0.2-0.3,0.3-0.4c0.1-0.1,0.4-0.5,0.4-0.5
				l0.3-0.7c0,0,0.2-0.5,0.2-0.6c0.1-0.1,0-0.3,0-0.3l0.1-0.2l0.1,0.2l0.2-0.4l0.1-0.4l0.3-0.4c0,0,0.2-0.2,0.3-0.2
				c0.1,0,0.2-0.2,0.2-0.2s0.2,0,0.3,0c0.1,0,0.4,0.1,0.4,0.1l0.3-0.2l0.4,0.1l0.4,0H59l0.4,0.4c0,0,0.8,0.3,1,0.3
				c0.2,0,1-0.3,1-0.3l0.5,0.2l1.2-0.1l0.4,0.2c0-0.1,0-0.3,0-0.4c0-0.1,0.3,0,0.4,0.1c0.1,0.1-0.1,0.1-0.1,0.2
				c0.1,0.1,0.2,0.1,0.2,0c0-0.3,0.6-0.2,0.7-0.2c0.1,0-0.1,0.1,0.2,0c0.2,0,0.1-0.5,0.2-0.7c0.1-0.2,0.8-0.4,0.9-0.7
				c0.1-0.8-1-0.4-0.9-0.8c0-0.1,0.4-0.1,0.5-0.1c0.2-0.1,0.1-0.3,0.1-0.6c0-0.1-0.3-0.1-0.3-0.2c0-0.1-0.2-0.4-0.4-0.5
				c0-0.1,0.5,0.2,0.6,0.2c0.8,0.4,0.5-0.3,0.6-0.8c0.1,0.1,0.6-0.2,0.7-0.5c0.3-0.5-0.3-1.1-1.1-0.8c-0.3,0.1-0.3,0.5-0.6,0.5
				c-1.3,0-2.4,0.2-3.5,0c-0.2,0-0.5-0.2-0.7-0.2c-0.8-0.1-1.8-0.2-2.5-0.6c-0.4-0.3,0.2-0.7,0.3-1.3c0.1-0.1,0.2-0.7,0.4-0.8
				c0-0.7,0.6-1.7,1-1.2c0.5,0.3,0.4,1.2,0.9,1.5c0.5,0.3,1.5,0.5,2.2,0.4c0.3,0,0.7-0.6,1-0.6c0.5-0.1,1,0.2,1.5-0.2
				c0.1-0.1,0.1-0.5,0.1-0.6c0-0.3,0.1-0.2,0.3-0.3c0.5-0.1,0.9-0.6,1.3-1c0.4-0.7-1.1-0.8-0.7-1.4c0.1,0,0.6,0.2,0.8,0.2
				c-0.1-0.4-0.5-0.5-0.7-0.9c-0.1-0.1-0.1-0.3-0.1-0.4c-0.1-0.3-0.6-0.4-1-0.6c-0.4-0.2-0.9-0.5-1.2-0.8c-0.1,0-0.3,0-0.3,0.1
				c-0.1-0.1-0.1-0.3-0.1-0.6c-0.4,0.1-0.7,0.3-0.6-0.2c0.1-0.1,0.1-0.1,0.3-0.2c0.2-0.1,0.4,0,0.6,0c0.3,0.1,0.5,0.1,0.8-0.1
				c0.1-0.1,0.4-0.5,0.5-0.5c0.1-0.1,0-0.2,0-0.3c-0.4-0.2-0.9-0.2-1.2,0c-0.4,0.2-0.4,0.4-0.7,0.6c-0.3,0.1-1,0.1-1.2,0
				c-0.5-0.4,0.4-0.5,0.5-0.6c0.2,0.2,0.4,0,0.9-0.2c0.2-0.1,0.4,0.1,0.6,0c0.3-0.1,0.5-0.3,0.7-0.5c0.1-0.1,0.2-0.3,0.3-0.3
				c0.3-0.2,0.5-0.1,0.6-0.2c0.4-0.4,0.1-1.1,0.1-1.6c0-0.7-0.6-0.4-0.8-0.9c-0.1,0-0.5-0.2-0.6-0.2c-0.3-0.2-0.4-0.3-0.2-0.4
				c0.7-0.3,0.9-0.8,1.5-0.9c0.1,0,0.1-0.2,0.2-0.2c0.3,0,1.2,0.1,1.4-0.1c0.6-0.3,0.8-1,1.2-1.5c0.2-0.2,0.5-0.3,0.7-0.5
				c0.3-0.4,0.6-0.7,0.8-1.2c0.1-0.2,0.1-0.6,0.2-0.8c0.1-0.2,0.5-0.1,0.6-0.3c0.2-0.4,0.5-0.9,0.8-1.3C73,19.2,72.3,18.2,71.5,17.6
				z M51.7,43.6c-0.1,0-0.2,0-0.2-0.1c0-0.1,0-0.2,0.1-0.2c0.1,0,0.1,0,0.2,0C51.9,43.3,51.9,43.4,51.7,43.6z M53.7,43.9
				c-0.1,0-0.2,0-0.2-0.1c0-0.1,0-0.2,0.1-0.2c0.1,0,0.1,0,0.2,0C53.8,43.7,53.8,43.8,53.7,43.9z M53.5,41.7c0-0.1,0-0.2,0.1-0.2
				c0.1,0,0.1,0,0.2,0c0,0.1,0,0.2-0.1,0.3C53.6,41.8,53.5,41.8,53.5,41.7z M54.5,43.1c-0.1,0-0.2,0-0.2-0.1c0-0.1,0-0.2,0.1-0.2
				c0.1,0,0.1,0,0.2,0C54.6,42.8,54.6,43,54.5,43.1z M54.7,36.3c-0.4,0-0.5-0.2-0.8-0.5c-0.1-0.1-0.3-0.1-0.5-0.2
				c-0.1-0.1,0.2-0.2,0.5-0.4c0.2-0.1,0.3-0.4,0.5-0.4c0.4-0.1,0.8-0.1,1.1-0.1c0.1,0.3-0.1,0.5-0.2,0.7
				C55.1,35.9,55,36.3,54.7,36.3z M55.3,36.8l-0.2-0.2c0-0.1,0.2-0.2,0.4-0.1L55.3,36.8z M57.2,42.4c-0.2,0-0.2-0.3,0-0.4
				C57.3,42.1,57.5,42.4,57.2,42.4z M64.6,46.6c-0.1,0-0.2,0-0.2-0.1c0-0.1,0-0.2,0.1-0.2C64.6,46.2,64.9,46.3,64.6,46.6z
				 M64.5,45.5c0.1,0,0.2,0,0.2,0.1c0,0.1-0.1,0.1-0.1,0.2C64.6,45.6,64.2,45.6,64.5,45.5z M64.6,43.5c0.1,0.1,0,0.4-0.1,0.4
				c-0.1,0-0.1-0.1-0.1-0.2C64.3,43.5,64.4,43.4,64.6,43.5z M64.3,44.3c0.1,0,0.1-0.1,0.2,0c0.1,0.1,0.2,0.2,0,0.3
				c-0.1,0-0.2,0-0.3-0.1C64.2,44.4,64.2,44.3,64.3,44.3z M63.7,44.3c0.1,0.1,0,0.4-0.1,0.4c-0.1,0-0.1-0.1-0.1-0.2
				C63.4,44.3,63.6,44.2,63.7,44.3z M59.6,42c0.1,0.1,0.4,0.3,0.1,0.4c-0.1,0-0.2-0.2-0.3-0.3C59.4,42,59.5,42,59.6,42z M58.1,39.2
				c0.1,0.1,0.2,0.5,0,0.5C57.8,39.7,57.8,39.3,58.1,39.2z M58.1,43.3c-0.1,0-0.2,0-0.2-0.1c0-0.1,0-0.2,0.1-0.2c0.1,0,0.1,0,0.2,0
				C58.3,43.1,58.3,43.2,58.1,43.3z M60.4,36.7c-0.1-0.7,0.2-0.8,0.4-1.1c0.3,0.3,0.4,0.1,0.4,0.4C61.1,36.4,60.7,36.4,60.4,36.7z
				 M65.4,35.5c0.1,0.1,0.2,0.5,0,0.5C65.1,36,65.1,35.7,65.4,35.5z M61.4,34.4c-0.2,0-0.2-0.4,0-0.5C61.5,34,61.6,34.4,61.4,34.4z
				 M62.8,33.1c-0.1,0.3-0.2,0.2-0.5,0.4c-0.1,0.1-0.3,0.1-0.4,0.1c-0.1,0-0.3-0.1-0.1-0.3c0.4-0.4,0.3-0.6,0.9-0.6
				C62.8,32.8,62.8,33,62.8,33.1z"/>
		</g>
		<g>
			<path class="st3" d="M34.1,23.4l1.5-2.4l4.7,1.9l0.1-0.1l-3.8-3.4l1.4-2.2l6.7,4.2L44,22.6l-5.2-3.1l0,0l4.4,4.2l-0.8,1.4l-5.7-2
				l0,0l4.9,3.3l-0.7,1.2L34.1,23.4z"/>
			<path class="st3" d="M46,15.4l-4.8-2.1l1.3-1.2l3,1.6l-1.2-3.2l1.2-1.2l1.7,5l2.1,2.3l-1.3,1.1L46,15.4z"/>
			<path class="st3" d="M47.1,8.3l1.7-1.2l6.5,5.1l-1.3,1l-1.4-1l-1.7,1.2l0.6,1.6l-1.3,1L47.1,8.3z M50.2,12.2l1.2-0.9l-2.6-2.4
				l0,0l0,0L50.2,12.2z"/>
			<path class="st3" d="M52.5,4.6l1.5-0.6l1.4,3l0.2-0.1L56,3.1l1.5-0.6l-0.3,4l3.5,3l-1.6,0.8L56,7.5l-0.2,0.1l0.4,1.1l1.1,2.5
				l-1.5,0.6L52.5,4.6z"/>
			<path class="st3" d="M59.9,1.6l1.5-0.3L63.3,9l-1.5,0.4L59.9,1.6z"/>
			<path class="st3" d="M39.3,15.2l1-1.1l6,5.1l-1,1.1L39.3,15.2z"/>
			<path class="st3" d="M74.8,7.6c0-0.3-0.1-1.2-0.1-2.2c0-1.3-0.7-1.7-1-1.8v0c0.2-0.1,0.9-0.4,0.8-2c0-1.4-1.2-2.2-2.6-2.2l-2.2,0
				l0.1,8l1.7,0l0-3.3l0.1,0C73,4.2,73,4.9,73.1,6.4c0,0.4,0,1.2,0,1.2H74.8z M71.8,3.2l-0.3,0l0-2.3l0.3,0c0.6,0,1,0.3,1,1.1
				C72.8,2.7,72.5,3.2,71.8,3.2z"/>
			<path class="st3" d="M76.3-0.3L80.4,0l-0.1,1.2L77.8,1l-0.2,2.1l2.3,0.2l-0.1,1.1l-2.3-0.2l-0.2,2.1l2.5,0.2l-0.1,1.2l-4.1-0.3
				L76.3-0.3z"/>
			<path class="st3" d="M82.5,5.8c-0.1,1.1,0,1.6,0.5,1.6c0.6,0.1,1-0.2,1.1-0.6c0.1-0.3,0.1-0.7-0.1-1c-0.2-0.3-0.8-0.9-1.1-1.1
				c-1-0.6-1.3-1.7-1.1-2.5c0.4-1.6,1.9-1.9,3-1.7c1.1,0.2,2.2,1.2,1.7,3.1L85,3.4c0.2-0.7,0.1-1.4-0.5-1.6c-0.5-0.1-0.9,0.1-1,0.6
				c-0.1,0.6,0.1,0.9,0.5,1.2c0.1,0.1,1.1,0.9,1.3,1.2c0.6,0.7,0.8,1.5,0.6,2.3c-0.5,1.7-1.9,1.8-3.1,1.6c-1.4-0.3-2.3-1.2-1.8-3.1
				L82.5,5.8z"/>
			<path class="st3" d="M88.5,1.8L93,3.7l-0.5,1.1l-1.6-0.6l-2.5,6.2l-1.3-0.6l2.5-6.2L88,3L88.5,1.8z"/>
			<path class="st3" d="M114.3,25.2l0.8,2.1l-4.3,3.4l0,0l4.8-1.9l0.5,1.3l-7.5,3l-0.8-2l4.5-3.7l0,0l-5.1,2.1l-0.5-1.3L114.3,25.2z
				"/>
			<path class="st3" d="M34.8,36.7c1.1,0.2,1.6,0,1.6-0.5c0.1-0.6-0.2-1-0.5-1.1c-0.3-0.1-0.7-0.1-1,0.1c-0.3,0.2-0.9,0.7-1.1,1.1
				c-0.7,1-1.8,1.2-2.6,1c-1.5-0.5-1.8-2-1.5-3.1c0.3-1.1,1.3-2.2,3.2-1.5l-0.3,1.5c-0.7-0.3-1.4-0.2-1.6,0.5
				c-0.2,0.5,0.1,0.9,0.6,1.1c0.5,0.1,0.9,0,1.2-0.4c0.1-0.1,0.9-1.1,1.2-1.3c0.8-0.6,1.5-0.8,2.3-0.5c1.7,0.6,1.8,1.9,1.4,3.2
				c-0.4,1.4-1.3,2.3-3.2,1.7L34.8,36.7z"/>
			<path class="st3" d="M95.2,5L97,6.1L94.7,14l-1.4-0.9l0.4-1.7l-1.8-1.1l-1.3,1.2l-1.4-0.8L95.2,5z M92.8,9.4l1.3,0.8l1.2-3.3l0,0
				l0,0L92.8,9.4z"/>
			<path class="st3" d="M111.2,19.9l1.1,1.8l-5.6,6l-0.9-1.4l1.1-1.3l-1.1-1.8l-1.7,0.5l-0.8-1.4L111.2,19.9z M107.1,22.7l0.8,1.3
				l2.6-2.4l0,0l0,0L107.1,22.7z"/>
			<path class="st3" d="M116.9,32.1l0.8,4.8l-1.2,0.2l-0.3-1.7l-6.6,1.1l-0.2-1.4L116,34l-0.3-1.7L116.9,32.1z"/>
			<path class="st3" d="M31.2,30.4l0.6-1.5l4.4,1.7c1.3,0.5,1.9,0.7,2.3-0.1c0.4-0.9-0.3-1.3-1.5-1.7l-4.4-1.7l0.6-1.4l4.8,1.8
				c1.9,0.7,2.5,1.7,1.7,3.6C39,32.5,38,33,36,32.3L31.2,30.4z"/>
			<path class="st3" d="M100,8.1l1.2,1l-2.9,3.7c-0.9,1-1.2,1.6-0.5,2.2c0.7,0.7,1.3,0.1,2.1-0.9l2.9-3.7l1.2,1l-3.2,4
				c-1.3,1.6-2.4,1.8-3.9,0.5c-1.2-1-1.4-2.2-0.1-3.8L100,8.1z"/>
			<path class="st3" d="M105.9,12.9l1.4,1.6c0.9,1.1,1,2.5,0,3.4c-1.2,1-1.8,0.7-2,0.6l0,0c0.2,0.3,0.3,1.1-0.7,1.9
				c-0.7,0.6-1.4,1.2-1.6,1.4l-1.1-1.3c0,0,0.6-0.5,0.9-0.8c1.1-0.9,1.6-1.4,0.7-2.4l-0.1-0.1l-2.5,2.1L99.8,18L105.9,12.9z
				 M104.3,16.5l0.2,0.3c0.5,0.5,0.9,0.5,1.5,0c0.6-0.5,0.6-1.1,0.2-1.5l-0.2-0.2L104.3,16.5z"/>
		</g>
		<path class="st0" d="M105.5,33.1c-0.1-0.2-0.4-0.4-0.7-0.4c-0.2,0-0.5,0.1-0.6,0c-0.3-0.1-0.2,0.2-0.5-0.2c0-0.1,0.3-0.2,0.1-0.4
			c0.2-0.1,0.2,0,0.5-0.1c0.3-0.1,0.5-0.2,0.8-0.2c0.1,0,0.4-0.4,0.2-0.7c-0.1-0.1-0.2-0.7-0.2-0.8c0.1-0.3,0.5-0.3,0.6-0.4
			c0-0.1-0.1-0.1-0.2-0.4c-0.1-0.2,0-0.7-0.1-0.9c-0.1-0.2-0.4-0.1-0.5-0.2c-0.2-0.2-0.5-0.4-0.8-0.5c-0.2,0-0.5-0.4-0.7-0.3
			c-0.2,0.1-0.3,0.6-0.5,0.7c-0.3,0.3-0.6,0.1-0.8,0.2c-0.3,0.1-0.1-0.9-0.1-1.3c-0.1-0.6-0.6-0.8-1.1-1.2c-0.4-0.3-0.8-0.7-1.2-1
			c-0.4-0.3-1-0.2-1.4,0c-0.8,0.7-1.2,1.6-0.9,2.5c0.1,0.4,0.3,0.8,0.4,1.2c0.1,0.7,0.1,1.4,0.1,2.2c0,0.1-0.2,0.3-0.4,0.4
			c-1.3,0.5-2.6,1.3-4.1,1.7c-0.3,0.1-0.4,0.4-0.3,0.8c0.1,0.2,0.2,0.6,0.4,0.8c0.1,0.1,0.3,0.1,0.4,0.1c0.1,0.1,0.1,0.5,0.2,0.6
			c0.1,0.1,0.2,0,0.4,0.2c0.9,0.8,1.9,1.4,3.1,1c0.1,0,0,0.1,0,0.2c-0.3,0.3-0.6,0.6-0.8,0.8c-0.1,0.2,0.4,0.2,0.5,0.4
			c0.1,0.1,0.2,0.7,0.4,0.8c0.3,0.1,0.3,0.8,1.7,0.6c0.2,0,0.2-0.2,0.3-0.2s0.7,0,0.8,0.1c0.3,0.3,0.4,0.8,0.3,1.2
			c-0.1,0.3-0.6,0.5-1,0.8c-0.2,0.1-0.3,0.2-0.4,0.4c0,0.1,0.7,0.1,0.8,0.3c0.2-0.1,0.3,0,0.5,0c0.2-0.1,0.1-0.2,0.3-0.3
			c0.3-0.1,0.8,0,1.2,0c0.1-0.1,0.3-0.5,0.5-0.5c0.5,0,0.9-0.2,1.1-0.5c0.8-1.2,0.8-2.2,0.6-3.5c0-0.1-0.3-0.2-0.2-0.3
			c0.2-0.2,0.1-0.8,0.4-1c0.1-0.1,0.4,0.1,0.5,0c0.4-0.5,1-1.6,1-2.2C105.9,33.4,105.6,33.3,105.5,33.1z M99.1,35.9
			c-0.2,0.2-0.2,0.3-0.3,0.3c-0.2,0-0.2-0.2-0.2-0.3c0.2-0.2,0.2-0.3,0.3-0.3C99.1,35.5,99.2,35.7,99.1,35.9z"/>
	</g>
</g>
</svg>
